<mxfile host="app.diagrams.net" agent="Mozilla/5.0 (Windows NT 10.0; Win64; x64) AppleWebKit/537.36 (KHTML, like Gecko) Chrome/131.0.0.0 Safari/537.36" version="24.9.1">
  <diagram name="Page-1" id="8om4XGoVVmO6UqVX-477">
    <mxGraphModel dx="1434" dy="738" grid="1" gridSize="10" guides="1" tooltips="1" connect="1" arrows="1" fold="1" page="1" pageScale="1" pageWidth="850" pageHeight="1100" math="0" shadow="0">
      <root>
        <mxCell id="0" />
        <mxCell id="1" parent="0" />
        <mxCell id="qTCCPmzDSpSoUlZGbgqN-2" value="" style="rounded=1;whiteSpace=wrap;html=1;fillColor=none;strokeColor=#009900;" vertex="1" parent="1">
          <mxGeometry x="80" y="220" width="680" height="400" as="geometry" />
        </mxCell>
        <mxCell id="qTCCPmzDSpSoUlZGbgqN-3" value="" style="rounded=0;whiteSpace=wrap;html=1;fillColor=none;strokeColor=#99CCFF;" vertex="1" parent="1">
          <mxGeometry x="120" y="200" width="250" height="450" as="geometry" />
        </mxCell>
        <mxCell id="qTCCPmzDSpSoUlZGbgqN-4" value="" style="rounded=0;whiteSpace=wrap;html=1;labelBackgroundColor=none;fillColor=#B6E68A;align=left;gradientColor=none;strokeColor=none;" vertex="1" parent="1">
          <mxGeometry x="170" y="250" width="140" height="150" as="geometry" />
        </mxCell>
        <mxCell id="qTCCPmzDSpSoUlZGbgqN-6" value="" style="rounded=0;whiteSpace=wrap;html=1;strokeColor=none;fillColor=#CCE5FF;" vertex="1" parent="1">
          <mxGeometry x="170" y="450" width="140" height="150" as="geometry" />
        </mxCell>
        <mxCell id="qTCCPmzDSpSoUlZGbgqN-7" value="" style="rounded=0;whiteSpace=wrap;html=1;fillColor=none;strokeColor=#99CCFF;" vertex="1" parent="1">
          <mxGeometry x="460" y="200" width="250" height="450" as="geometry" />
        </mxCell>
        <mxCell id="qTCCPmzDSpSoUlZGbgqN-8" value="" style="rounded=0;whiteSpace=wrap;html=1;labelBackgroundColor=none;fillColor=#B6E68A;align=left;gradientColor=none;strokeColor=none;" vertex="1" parent="1">
          <mxGeometry x="510" y="250" width="140" height="150" as="geometry" />
        </mxCell>
        <mxCell id="qTCCPmzDSpSoUlZGbgqN-9" value="" style="rounded=0;whiteSpace=wrap;html=1;strokeColor=none;fillColor=#CCE5FF;" vertex="1" parent="1">
          <mxGeometry x="510" y="450" width="140" height="150" as="geometry" />
        </mxCell>
        <mxCell id="qTCCPmzDSpSoUlZGbgqN-10" value="" style="points=[];aspect=fixed;html=1;align=center;shadow=0;dashed=0;fillColor=#FF6A00;strokeColor=none;shape=mxgraph.alibaba_cloud.clb_classic_load_balancer_01;" vertex="1" parent="1">
          <mxGeometry x="386.3" y="280" width="47.400000000000006" height="40.2" as="geometry" />
        </mxCell>
        <mxCell id="qTCCPmzDSpSoUlZGbgqN-12" value="" style="endArrow=classic;html=1;rounded=0;exitX=0.078;exitY=0.995;exitDx=0;exitDy=0;exitPerimeter=0;" edge="1" parent="1" source="qTCCPmzDSpSoUlZGbgqN-10" target="qTCCPmzDSpSoUlZGbgqN-4">
          <mxGeometry width="50" height="50" relative="1" as="geometry">
            <mxPoint x="400" y="510" as="sourcePoint" />
            <mxPoint x="450" y="460" as="targetPoint" />
          </mxGeometry>
        </mxCell>
        <mxCell id="qTCCPmzDSpSoUlZGbgqN-14" value="" style="endArrow=classic;html=1;rounded=0;" edge="1" parent="1" target="qTCCPmzDSpSoUlZGbgqN-8">
          <mxGeometry width="50" height="50" relative="1" as="geometry">
            <mxPoint x="430" y="320" as="sourcePoint" />
            <mxPoint x="358.7" y="338.2" as="targetPoint" />
            <Array as="points" />
          </mxGeometry>
        </mxCell>
        <mxCell id="qTCCPmzDSpSoUlZGbgqN-15" value="" style="outlineConnect=0;dashed=0;verticalLabelPosition=bottom;verticalAlign=top;align=center;html=1;shape=mxgraph.aws3.internet_gateway;fillColor=#F58534;gradientColor=none;" vertex="1" parent="1">
          <mxGeometry x="375.5" y="120" width="69" height="72" as="geometry" />
        </mxCell>
        <mxCell id="qTCCPmzDSpSoUlZGbgqN-16" value="" style="points=[];aspect=fixed;html=1;align=center;shadow=0;dashed=0;fillColor=#FF6A00;strokeColor=none;shape=mxgraph.alibaba_cloud.ecs_elastic_compute_service;" vertex="1" parent="1">
          <mxGeometry x="200.35" y="383.04" width="79.3" height="73.92" as="geometry" />
        </mxCell>
        <mxCell id="qTCCPmzDSpSoUlZGbgqN-18" value="" style="points=[];aspect=fixed;html=1;align=center;shadow=0;dashed=0;fillColor=#FF6A00;strokeColor=none;shape=mxgraph.alibaba_cloud.ecs_elastic_compute_service;" vertex="1" parent="1">
          <mxGeometry x="540.35" y="383.04" width="79.3" height="73.92" as="geometry" />
        </mxCell>
        <mxCell id="qTCCPmzDSpSoUlZGbgqN-19" value="" style="points=[];aspect=fixed;html=1;align=center;shadow=0;dashed=0;fillColor=#FF6A00;strokeColor=none;shape=mxgraph.alibaba_cloud.eip_elastic_ip_address;" vertex="1" parent="1">
          <mxGeometry x="386.3" y="230" width="47.400000000000006" height="46.5" as="geometry" />
        </mxCell>
      </root>
    </mxGraphModel>
  </diagram>
</mxfile>
